<?xml version="1.0" standalone="no"?>
<!DOCTYPE svg PUBLIC "-//W3C//DTD SVG 20010904//EN"
 "http://www.w3.org/TR/2001/REC-SVG-20010904/DTD/svg10.dtd">
<svg version="1.0" xmlns="http://www.w3.org/2000/svg"
 width="500.000000pt" height="500.000000pt" viewBox="0 0 500.000000 500.000000"
 preserveAspectRatio="xMidYMid meet">

<g transform="translate(0.000000,500.000000) scale(0.100000,-0.100000)"
fill="#000000" stroke="none">
<path d="M2355 3432 c-6 -5 -38 -19 -72 -31 -55 -19 -75 -35 -175 -137 -62
-63 -115 -118 -118 -122 -3 -4 -19 -20 -37 -35 l-31 -29 -75 56 -74 56 -87
-31 -87 -32 36 -29 c19 -16 35 -34 35 -39 0 -5 -60 -9 -137 -9 l-138 0 -3 -38
c-6 -88 -33 -276 -39 -282 -10 -8 -204 -63 -207 -58 -1 2 -12 46 -25 98 -36
151 -41 161 -71 156 -14 -3 -41 -8 -61 -12 l-37 -6 -5 64 c-7 83 -29 158 -50
170 -10 5 -17 21 -17 38 0 36 -14 38 -35 7 -11 -18 -12 -31 -5 -56 5 -19 7
-38 4 -43 -3 -4 0 -50 6 -101 15 -112 16 -96 -9 -191 -25 -94 -26 -116 -6
-116 9 0 20 -11 25 -25 5 -14 14 -25 20 -25 13 0 13 27 0 33 -6 3 -5 4 2 3 8
-2 13 -19 13 -46 0 -48 6 -45 -145 -85 -65 -17 -66 -18 -175 -141 -60 -69
-112 -130 -116 -137 -8 -15 104 -201 124 -205 8 -2 17 -12 20 -23 5 -17 15
-19 121 -19 95 0 116 3 116 14 0 19 23 11 344 -118 l146 -60 143 48 c129 43
146 52 183 92 l40 44 90 -26 c104 -31 150 -34 258 -15 l78 14 -5 66 c-3 36
-11 99 -16 140 -10 65 -9 79 8 116 l19 43 -25 6 c-18 5 -23 11 -18 25 5 17 -9
24 -102 55 -59 20 -113 36 -119 36 -12 0 -186 173 -192 191 -2 5 25 9 61 9 37
0 67 -5 69 -11 2 -6 60 22 128 61 93 53 132 82 152 111 27 38 27 39 8 51 -11
7 -20 17 -20 21 0 5 -30 38 -67 73 -60 55 -66 65 -53 77 17 16 260 218 275
229 6 4 36 30 67 59 32 28 65 57 75 65 10 7 13 14 8 14 -6 0 -15 -4 -20 -8z
m-481 -377 c3 -8 1 -15 -4 -15 -6 0 -10 7 -10 15 0 8 2 15 4 15 2 0 6 -7 10
-15z m-94 -229 c0 -38 -12 -46 -70 -46 -51 0 -61 -3 -77 -26 -17 -23 -23 -25
-86 -22 l-67 3 32 53 33 52 117 0 c95 0 118 -3 118 -14z m-213 -243 l27 -19
-52 -96 c-90 -165 -82 -166 -130 13 -22 85 -44 171 -48 192 l-6 38 91 -54 c51
-30 104 -63 118 -74z m223 -303 c-6 -11 -25 -41 -43 -66 -18 -25 -36 -53 -42
-62 -5 -9 -16 -22 -23 -30 -7 -8 -21 -30 -31 -51 -21 -39 -65 -91 -79 -91 -7
0 -103 281 -102 302 0 7 59 10 258 16 70 2 72 1 62 -18z"/>
<path d="M2295 3336 c-16 -8 -88 -74 -160 -147 -71 -73 -123 -128 -115 -122 8
6 71 55 140 110 129 103 190 157 190 167 0 10 -23 6 -55 -8z"/>
<path d="M2445 3319 c-40 -13 -75 -34 -105 -62 -42 -40 -96 -86 -214 -182
-139 -114 -116 -111 45 6 63 45 157 113 209 151 167 120 166 119 65 87z"/>
<path d="M2471 3259 c-13 -5 -66 -44 -118 -87 -52 -42 -109 -88 -127 -102 -19
-14 -58 -48 -87 -74 -57 -51 -48 -46 119 75 57 41 113 81 125 89 125 85 165
130 88 99z"/>
<path d="M3176 2696 c-73 -31 -138 -93 -174 -166 -24 -49 -27 -66 -27 -160 0
-88 4 -113 23 -154 37 -80 85 -132 160 -168 61 -30 75 -33 157 -33 77 1 98 5
146 28 31 15 64 36 74 47 18 20 18 21 -19 59 l-38 39 -34 -23 c-70 -48 -190
-51 -252 -6 -74 53 -105 115 -104 211 0 109 40 177 129 217 78 36 171 25 245
-29 15 -11 23 -8 55 24 37 37 37 37 17 59 -42 46 -113 72 -209 76 -78 3 -98 0
-149 -21z"/>
<path d="M2300 2482 c0 -265 7 -303 71 -376 53 -60 107 -87 184 -94 98 -7 169
18 232 83 77 79 83 109 83 387 l0 228 -285 0 -285 0 0 -228z m460 -49 c0 -141
-3 -174 -19 -208 -23 -52 -74 -95 -114 -97 -112 -6 -156 14 -192 86 -24 47
-25 59 -25 218 l0 168 175 0 175 0 0 -167z"/>
<path d="M3640 2657 c0 -47 6 -63 55 -140 30 -47 55 -89 55 -92 0 -3 -25 -5
-55 -5 l-55 0 0 -200 0 -200 60 0 60 0 0 145 0 145 33 0 c31 0 36 -6 122 -145
l90 -144 67 -1 67 0 -86 137 c-47 76 -88 144 -90 153 -2 10 11 21 37 33 66 30
94 77 98 161 3 61 1 76 -20 106 -28 41 -77 76 -127 90 -20 5 -98 10 -173 10
l-138 0 0 -53z m295 -71 c70 -30 75 -109 8 -144 -50 -27 -70 -7 -157 146 -10
17 105 16 149 -2z"/>
<path d="M4167 2633 c-4 -3 -7 -11 -7 -17 0 -6 5 -5 12 2 6 6 9 14 7 17 -3 3
-9 2 -12 -2z"/>
<path d="M2935 2150 c-3 -5 -1 -10 4 -10 6 0 11 5 11 10 0 6 -2 10 -4 10 -3 0
-8 -4 -11 -10z"/>
<path d="M3009 2040 c12 -11 28 -17 33 -14 6 4 0 13 -13 20 -36 20 -47 16 -20
-6z"/>
</g>
</svg>
